<?xml version="1.0" encoding="UTF-8"?>
<svg width="506px" height="228px" viewBox="0 0 506 228" version="1.1" xmlns="http://www.w3.org/2000/svg" xmlns:xlink="http://www.w3.org/1999/xlink">
    <!-- Generator: sketchtool 57.1 (101010) - https://sketch.com -->
    <title>8539f992-8d4d-4fec-885e-04855551153c@1.00x</title>
    <desc>Created with sketchtool.</desc>
    <g id="Page-1" stroke="none" stroke-width="1" fill="none" fill-rule="evenodd">
        <g id="GEL-/-White">
            <path d="M65.6661562,144.761155 L134,144.761155 L134,172.782152 C134,182.25989 133.418587,190.054869 132.255743,196.167323 C131.092899,202.279777 129.177655,207.533661 126.509954,211.929134 C123.842253,216.324606 119.874963,219.621161 114.607963,221.818898 C109.340964,224.016634 103.082221,225.596233 95.8315467,226.557743 C88.5808724,227.519252 79.2098584,228 67.7182236,228 C54.4481215,228 43.9142809,227.278879 36.1163859,225.836614 C28.3184909,224.39435 21.4783347,221.475525 15.5957121,217.080052 C9.71308953,212.68458 5.64319658,206.503539 3.38591118,198.536745 C1.12862577,190.569951 0,180.062182 0,167.013123 L0,131.574803 C0,118.800461 1.23122812,108.430049 3.69372129,100.463255 C6.15621446,92.4964606 10.3287097,86.3497592 16.2113323,82.0229659 C22.0939549,77.6961726 28.9683119,74.7773479 36.8346095,73.2664042 C44.7009071,71.7554605 54.9953422,71 67.7182236,71 C86.5973379,71 99.1832253,71.6867823 105.476263,73.0603675 C118.746365,75.9448963 127.296561,83.362145 131.127106,95.312336 C133.042378,101.630828 133.931598,109.460146 133.794793,118.800525 L104.45023,118.800525 C104.45023,116.46543 104.347627,114.405083 104.14242,112.619423 C103.937212,110.833762 103.561003,109.219823 103.013783,107.777559 C102.466562,106.335295 101.95355,105.064747 101.474732,103.965879 C100.995914,102.867011 100.106694,101.905516 98.8070444,101.081365 C97.5073952,100.257214 96.4813718,99.5704314 95.7289433,99.0209974 C94.9765149,98.4715633 93.6084836,98.0251548 91.6248086,97.6817585 C89.6411335,97.3383622 88.1020984,97.0636493 87.007657,96.8576115 C85.9132156,96.6515738 83.9979718,96.5142173 81.2618683,96.4455381 C78.5257648,96.3768588 76.4395171,96.3425197 75.0030628,96.3425197 L67.7182236,96.3425197 C61.6987958,96.3425197 56.7738834,96.4798761 52.9433384,96.7545932 C49.1127935,97.0293102 45.6927154,97.7160925 42.6830015,98.8149606 C39.6732877,99.9138288 37.3818353,101.184376 35.8085758,102.62664 C34.2353163,104.068905 32.9698874,106.266608 32.0122511,109.219816 C31.0546149,112.173024 30.4390009,115.263545 30.1653905,118.49147 C29.8917802,121.719395 29.6865755,126.080462 29.5497703,131.574803 L29.5497703,167.013123 C29.6865755,172.782181 29.8917802,177.452301 30.1653905,181.023622 C30.4390009,184.594943 31.1572173,187.788481 32.3200613,190.604331 C33.4829053,193.42018 34.8167357,195.549205 36.3215926,196.99147 C37.8264496,198.433734 40.1863035,199.635603 43.4012251,200.597113 C46.6161468,201.558622 49.9678233,202.142387 53.4563553,202.348425 C56.9448873,202.554463 61.6987958,202.65748 67.7182236,202.65748 C73.3272358,202.65748 77.5339319,202.588802 80.338438,202.451444 C83.1429441,202.314085 86.2210144,201.936355 89.5727412,201.318241 C92.924468,200.700128 95.3185227,199.807311 96.754977,198.639764 C98.1914314,197.472216 99.6278642,195.755261 101.064319,193.488845 C102.500773,191.22243 103.424194,188.440961 103.834609,185.144357 C104.245025,181.847753 104.45023,177.727059 104.45023,172.782152 L104.45023,167.21916 L65.6661562,167.21916 L65.6661562,144.761155 Z" id="Path-Copy-4" fill="#FFFFFF" fill-rule="nonzero"></path>
            <polygon id="Path-Copy-5" fill="#FFFFFF" fill-rule="nonzero" points="186.524178 97.256 186.524178 135.653333 258.489362 135.653333 258.489362 159.882667 186.524178 159.882667 186.524178 200.744 263 200.744 263 226 157 226 157 72 262.384913 72 262.384913 97.256"></polygon>
            <polygon id="Path-Copy-6" fill="#FFFFFF" fill-rule="nonzero" points="317.441296 72 317.441296 200.744 389 200.744 389 226 288 226 288 72"></polygon>
            <g id="GEL-/-Favicon-/-Light" transform="translate(362.000000, 0.000000)">
                <g id="Group-8">
                    <path d="M30.4244749,102.88193 C27.9961404,102.88193 25.695613,101.934495 24.0085596,100.218871 L2.66477757,78.8375823 C-0.888259191,75.2783019 -0.888259191,69.4656641 2.66477757,65.9319901 L24.0085596,44.5507015 C25.7467358,42.8094708 27.9961404,41.8876428 30.4755977,41.8876428 C32.9039322,41.8876428 35.2044596,42.8350771 36.891513,44.5507015 L58.235295,65.9319901 C61.7883318,69.4912705 61.7883318,75.3039082 58.235295,78.8375823 L36.891513,100.218871 C35.1533368,101.934495 32.9039322,102.88193 30.4244749,102.88193 Z" id="Path" fill="#96D6F4"></path>
                    <path d="M72.5095393,60.9942868 C70.0812048,60.9942868 67.7806774,60.0468525 66.093624,58.3312281 L44.749842,36.9499395 C41.1968052,33.3906591 41.1968052,27.5780214 44.749842,24.0443473 L66.093624,2.6630587 C67.8318002,0.921828013 70.0812048,3.8191672e-14 72.5606621,3.8191672e-14 C74.9889966,3.8191672e-14 77.289524,0.947434346 78.9765774,2.6630587 L100.320359,24.0443473 C103.873396,27.6036277 103.873396,33.4162655 100.320359,36.9499395 L78.9765774,58.3312281 C77.2384012,60.0468525 74.9889966,60.9942868 72.5095393,60.9942868 Z" id="Path-Copy-9" fill="#C0E6F8"></path>
                    <path d="M113.470028,102.88193 C111.041694,102.88193 108.741167,101.934495 107.054113,100.218871 L85.7103311,78.8375823 C82.1572944,75.2783019 82.1572944,69.4656641 85.7103311,65.9319901 L107.054113,44.5507015 C108.792289,42.8094708 111.041694,41.8876428 113.521151,41.8876428 C115.949486,41.8876428 118.250013,42.8350771 119.937067,44.5507015 L141.280849,65.9319901 C144.833885,69.4912705 144.833885,75.3039082 141.280849,78.8375823 L119.937067,100.218871 C118.19889,101.934495 115.949486,102.88193 113.470028,102.88193 Z" id="Path-Copy-10" fill="#6DC6EF"></path>
                    <path d="M72.5095393,143.945626 C70.0812048,143.945626 67.7806774,142.998192 66.093624,141.282567 L44.749842,119.901279 C41.1968052,116.341998 41.1968052,110.529361 44.749842,106.995687 L66.093624,85.614398 C67.8318002,83.8731674 70.0812048,82.9513393 72.5606621,82.9513393 C74.9889966,82.9513393 77.289524,83.8987737 78.9765774,85.614398 L100.320359,106.995687 C103.873396,110.554967 103.873396,116.367605 100.320359,119.901279 L78.9765774,141.282567 C77.2384012,142.998192 74.9889966,143.945626 72.5095393,143.945626 Z" id="Path-Copy-11" fill="#3BA9FF"></path>
                </g>
            </g>
        </g>
    </g>
</svg>